<?xml version="1.0" encoding="UTF-8"?>
<svg id="Layer_1" data-name="Layer 1" xmlns="http://www.w3.org/2000/svg" viewBox="0 0 162 252">
  <defs>
    <style>
      .cls-1 {
        fill: #e8b923;
      }

      .cls-2 {
        fill: #231f20;
      }

      .cls-3 {
        fill: #2b50c8;
      }
    </style>
  </defs>
  <g>
    <polygon class="cls-1" points="68.15 126 81 88.39 93.85 126 81 163.61 68.15 126"/>
    <path class="cls-2" d="m81,89.93l12.32,36.07-12.32,36.07-12.32-36.07,12.32-36.07m0-3.09l-13.38,39.16,13.38,39.16,13.38-39.16-13.38-39.16h0Z"/>
  </g>
  <g>
    <g>
      <g>
        <polygon class="cls-3" points="137.85 242.5 81 57.72 24.15 242.5 9.68 242.5 81 10.7 152.32 242.5 137.85 242.5"/>
        <path class="cls-2" d="m81,12.4l70.65,229.6h-13.42L81.96,59.13l-.96-3.11-.96,3.11L23.78,242h-13.42L81,12.4m0-3.4L9,243h15.51L81,59.42l56.49,183.58h15.51L81,9h0Z"/>
      </g>
      <g>
        <polygon class="cls-3" points="9.68 9.5 24.15 9.5 81 194.28 137.85 9.5 152.32 9.5 81 241.3 9.68 9.5"/>
        <path class="cls-2" d="m151.65,10l-70.65,229.6L10.35,10h13.42l56.27,182.87.96,3.11.96-3.11L138.22,10h13.42m1.35-1h-15.51l-56.49,183.58L24.51,9h-15.51l72,234L153,9h0Z"/>
      </g>
    </g>
    <g>
      <g>
        <polygon class="cls-1" points="73.76 34.21 81 10.7 88.24 34.21 81 57.73 73.76 34.21"/>
        <path class="cls-2" d="m81,12.4l6.72,21.81-6.72,21.81-6.72-21.81,6.72-21.81m0-3.4l-7.77,25.21,7.77,25.21,7.77-25.21-7.77-25.21h0Z"/>
      </g>
      <g>
        <polygon class="cls-1" points="101.99 126 109.24 102.49 116.48 126 109.24 149.51 101.99 126"/>
        <path class="cls-2" d="m109.24,104.19l6.72,21.81-6.72,21.81-6.72-21.81,6.72-21.81m0-3.4l-7.77,25.21,7.77,25.21,7.77-25.21-7.77-25.21h0Z"/>
      </g>
      <g>
        <polygon class="cls-1" points="45.49 126.16 52.73 102.64 59.97 126.16 52.73 149.67 45.49 126.16"/>
        <path class="cls-2" d="m52.73,104.34l6.72,21.81-6.72,21.81-6.72-21.81,6.72-21.81m0-3.4l-7.77,25.21,7.77,25.21,7.77-25.21-7.77-25.21h0Z"/>
      </g>
      <g>
        <polygon class="cls-1" points="73.76 217.79 81 194.27 88.24 217.79 81 241.3 73.76 217.79"/>
        <path class="cls-2" d="m81,195.97l6.72,21.81-6.72,21.81-6.72-21.81,6.72-21.81m0-3.4l-7.77,25.21,7.77,25.21,7.77-25.21-7.77-25.21h0Z"/>
      </g>
    </g>
  </g>
  <g>
    <polygon class="cls-1" points="36.47 13.75 68.99 13.75 52.73 64.32 36.47 13.75"/>
    <path class="cls-2" d="m68.31,14.25l-15.58,48.43-15.58-48.43h31.15m1.37-1h-33.9l16.95,52.7,16.95-52.7h0Z"/>
  </g>
  <g>
    <polygon class="cls-1" points="92.97 13.75 125.5 13.75 109.24 64.32 92.97 13.75"/>
    <path class="cls-2" d="m124.81,14.25l-15.58,48.43-15.58-48.43h31.15m1.37-1h-33.9l16.95,52.7,16.95-52.7h0Z"/>
  </g>
  <g>
    <polygon class="cls-1" points="92.97 238.25 109.24 187.68 125.5 238.25 92.97 238.25"/>
    <path class="cls-2" d="m109.24,189.32l15.58,48.43h-31.15l15.58-48.43m0-3.27l-16.95,52.7h33.9l-16.95-52.7h0Z"/>
  </g>
  <g>
    <polygon class="cls-1" points="36.47 238.25 52.73 187.68 68.99 238.25 36.47 238.25"/>
    <path class="cls-2" d="m52.73,189.32l15.58,48.43h-31.15l15.58-48.43m0-3.27l-16.95,52.7h33.9l-16.95-52.7h0Z"/>
  </g>
  <g>
    <polygon class="cls-1" points="131.92 126 148.9 71.68 148.9 180.32 131.92 126"/>
    <path class="cls-2" d="m148.4,74.95v102.09l-15.95-51.05,15.95-51.05m1-6.55l-18,57.6,18,57.6v-115.2h0Z"/>
  </g>
  <g>
    <polygon class="cls-1" points="13.1 71.84 30.08 126.17 13.1 180.49 13.1 71.84"/>
    <path class="cls-2" d="m13.6,75.12l15.95,51.05-15.95,51.05v-102.09m-1-6.55v115.2l18-57.6-18-57.6h0Z"/>
  </g>
</svg>