<?xml version="1.0" encoding="UTF-8"?>
<svg id="icon" xmlns="http://www.w3.org/2000/svg" viewBox="0 0 80 126">
  <defs>
    <style>
      .cls-1 {
        fill: #7d5076;
      }

      .cls-2 {
        fill: #8cbe66;
      }

      .cls-3 {
        fill: #cadc86;
      }

      .cls-4 {
        fill: #6eb992;
      }
    </style>
  </defs>
  <g>
    <path class="cls-4" d="m40,33.5c-7,0-12.9-5.46-13.45-12.44-.03-.35-.05-.71-.05-1.06s.02-.71.05-1.06c.54-6.98,6.45-12.44,13.45-12.44s12.9,5.46,13.45,12.44c.03.35.05.71.05,1.06,0,.39-.02.8-.07,1.25h-23.49l.11.59c.88,4.8,5.07,8.28,9.95,8.28,2.84,0,5.52-1.18,7.44-3.26l2.59,2.16c-2.56,2.85-6.19,4.47-10.03,4.47Zm0-23.62c-4.88,0-9.07,3.48-9.95,8.28l-.11.59h20.12l-.11-.59c-.88-4.8-5.07-8.28-9.95-8.28Z"/>
    <path d="m40,7c6.74,0,12.42,5.26,12.95,11.99.04.41.05.72.05,1.01,0,.24,0,.49-.03.75h-23.63l.22,1.18c.93,5.04,5.32,8.69,10.44,8.69,2.82,0,5.49-1.11,7.48-3.08l1.83,1.53c-2.44,2.51-5.78,3.93-9.31,3.93-6.74,0-12.42-5.26-12.95-11.99-.04-.41-.05-.72-.05-1.01s.02-.61.05-1.02c.52-6.72,6.21-11.98,12.95-11.98m-10.66,12.25h21.32l-.22-1.18c-.93-5.04-5.32-8.69-10.44-8.69s-9.52,3.66-10.44,8.69l-.22,1.18m10.66-13.25c-7.36,0-13.38,5.68-13.94,12.9-.03.36-.06.73-.06,1.1s.02.74.06,1.1c.56,7.22,6.58,12.9,13.94,12.9,4.32,0,8.18-1.96,10.75-5.03l-3.36-2.8c-1.77,2.11-4.42,3.46-7.39,3.46-4.72,0-8.63-3.4-9.46-7.88h23.34c.07-.57.12-1.16.12-1.75,0-.37-.02-.74-.06-1.1-.56-7.22-6.58-12.9-13.94-12.9h0Zm-9.46,12.25c.82-4.48,4.74-7.88,9.46-7.88s8.63,3.4,9.46,7.88h-18.92Z"/>
  </g>
  <g>
    <path class="cls-4" d="m40,119.5c-7,0-12.9-5.46-13.45-12.44-.03-.35-.05-.71-.05-1.06,0-.39.02-.8.07-1.25h23.49l-.11-.59c-.88-4.8-5.07-8.28-9.95-8.28-2.84,0-5.52,1.18-7.44,3.26l-2.59-2.16c2.56-2.85,6.19-4.47,10.03-4.47,7,0,12.9,5.46,13.45,12.44.03.35.05.71.05,1.06s-.02.71-.05,1.06c-.54,6.98-6.45,12.44-13.45,12.44Zm-9.95-11.66c.88,4.8,5.07,8.28,9.95,8.28s9.07-3.48,9.95-8.28l.11-.59h-20.12l.11.59Z"/>
    <path d="m40,93c6.74,0,12.42,5.26,12.95,11.99.04.41.05.72.05,1.01s-.02.61-.05,1.02c-.52,6.72-6.21,11.98-12.95,11.98s-12.42-5.26-12.95-11.99c-.04-.41-.05-.72-.05-1.01,0-.24,0-.49.03-.75h23.63l-.22-1.18c-.93-5.04-5.32-8.69-10.44-8.69-2.82,0-5.49,1.11-7.48,3.08l-1.83-1.53c2.44-2.51,5.78-3.93,9.31-3.93m0,23.62c5.12,0,9.52-3.66,10.44-8.69l.22-1.18h-21.32l.22,1.18c.93,5.04,5.32,8.69,10.44,8.69m0-24.62c-4.32,0-8.18,1.96-10.75,5.03l3.36,2.8c1.77-2.11,4.42-3.46,7.39-3.46,4.72,0,8.63,3.4,9.46,7.88h-23.34c-.07.57-.12,1.16-.12,1.75,0,.37.02.74.06,1.1.56,7.22,6.58,12.9,13.94,12.9s13.38-5.68,13.94-12.9c.03-.36.06-.73.06-1.1s-.02-.74-.06-1.1c-.56-7.22-6.58-12.9-13.94-12.9h0Zm0,23.62c-4.72,0-8.63-3.4-9.46-7.88h18.92c-.82,4.48-4.74,7.88-9.46,7.88h0Z"/>
  </g>
  <g>
    <polygon class="cls-3" points="40.5 70.87 14.28 116.28 8.22 112.78 36.46 63.87 7.22 13.22 13.28 9.72 40.5 56.87 67.72 9.72 73.78 13.22 44.54 63.87 72.78 112.78 66.72 116.28 40.5 70.87"/>
    <path d="m67.9,10.4l5.2,3-28.85,49.96-.29.5.29.5,27.85,48.23-5.2,3-25.54-44.23-.87-1.5-.87,1.5-25.54,44.23-5.2-3,27.85-48.23.29-.5-.29-.5L7.9,13.4l5.2-3,26.54,45.96.87,1.5.87-1.5,26.54-45.96m-.37-1.37l-27.04,46.83L13.46,9.04l-6.93,4,29.35,50.83L7.54,112.96l6.93,4,26.04-45.1,26.04,45.1,6.93-4-28.35-49.1,29.35-50.83-6.93-4h0Z"/>
  </g>
  <g>
    <rect class="cls-2" x="63.07" y="62" width="3" height="29" transform="translate(-29.6 42.53) rotate(-29.99)"/>
    <path d="m58.44,63.88l14,24.25-1.73,1-14-24.25,1.73-1m.37-1.37l-3.46,2,15,25.98,3.46-2-15-25.98h0Z"/>
  </g>
  <g>
    <path class="cls-1" d="m64.01,69.01c-3.39,0-6.54-1.82-8.24-4.75-2.62-4.54-1.06-10.36,3.48-12.98,1.44-.83,3.08-1.27,4.74-1.27,3.39,0,6.54,1.82,8.24,4.75,1.27,2.2,1.61,4.76.95,7.21-.66,2.45-2.23,4.5-4.43,5.77-1.44.83-3.08,1.27-4.74,1.27Z"/>
    <path d="m63.99,50.51h0c3.21,0,6.2,1.73,7.8,4.5,1.2,2.08,1.52,4.51.9,6.83-.62,2.32-2.11,4.26-4.19,5.46-1.37.79-2.92,1.21-4.49,1.21-3.21,0-6.2-1.72-7.8-4.5-1.2-2.08-1.52-4.51-.9-6.83.62-2.32,2.11-4.26,4.19-5.46,1.37-.79,2.92-1.21,4.49-1.21m0-1c-1.7,0-3.42.43-4.99,1.34-4.78,2.76-6.42,8.88-3.66,13.66,1.85,3.21,5.21,5,8.67,5,1.7,0,3.42-.43,4.99-1.34,4.78-2.76,6.42-8.88,3.66-13.66-1.85-3.21-5.21-5-8.67-5h0Z"/>
  </g>
  <g>
    <path class="cls-3" d="m64,65.01c-1.96,0-3.79-1.05-4.77-2.75-1.52-2.63-.61-6,2.01-7.51.84-.48,1.79-.74,2.75-.74,1.96,0,3.79,1.05,4.77,2.75,1.52,2.63.61,6-2.01,7.51-.84.48-1.79.74-2.75.74Z"/>
    <path d="m63.99,54.51h0c1.78,0,3.44.96,4.34,2.5,1.38,2.39.56,5.45-1.83,6.83-.76.44-1.62.67-2.49.67-1.78,0-3.45-.96-4.34-2.5-1.38-2.39-.56-5.45,1.83-6.83.76-.44,1.62-.67,2.49-.67m0-1c-1.02,0-2.05.26-2.99.8-2.87,1.66-3.85,5.33-2.2,8.2,1.11,1.92,3.13,3,5.2,3,1.02,0,2.05-.26,2.99-.8,2.87-1.66,3.85-5.33,2.2-8.2-1.11-1.92-3.13-3-5.2-3h0Z"/>
  </g>
  <g>
    <rect class="cls-2" x="13.93" y="35" width="3" height="29" transform="translate(-22.68 14.34) rotate(-29.99)"/>
    <path d="m9.29,36.88l14,24.25-1.73,1-14-24.25,1.73-1m.37-1.37l-3.46,2,15,25.98,3.46-2-15-25.98h0Z"/>
  </g>
  <g>
    <path class="cls-1" d="m16.01,75.99c-3.39,0-6.54-1.82-8.24-4.75-1.27-2.2-1.61-4.76-.95-7.21.66-2.45,2.23-4.5,4.43-5.77,1.44-.83,3.08-1.27,4.74-1.27,3.39,0,6.54,1.82,8.24,4.75,1.27,2.2,1.61,4.76.95,7.21-.66,2.45-2.23,4.5-4.43,5.77-1.44.83-3.08,1.27-4.74,1.27Z"/>
    <path d="m15.99,57.49h0c3.21,0,6.2,1.73,7.8,4.5,1.2,2.08,1.52,4.51.9,6.83-.62,2.32-2.11,4.26-4.19,5.46-1.37.79-2.92,1.21-4.49,1.21-3.21,0-6.2-1.72-7.8-4.5-1.2-2.08-1.52-4.51-.9-6.83.62-2.32,2.11-4.26,4.19-5.46,1.37-.79,2.92-1.21,4.49-1.21m0-1c-1.7,0-3.42.43-4.99,1.34-4.78,2.76-6.42,8.88-3.66,13.66,1.85,3.21,5.21,5,8.67,5,1.7,0,3.42-.43,4.99-1.34,4.78-2.76,6.42-8.88,3.66-13.66-1.85-3.21-5.21-5-8.67-5h0Z"/>
  </g>
  <g>
    <path class="cls-3" d="m16,71.99c-1.96,0-3.79-1.05-4.77-2.75-1.52-2.63-.61-6,2.01-7.51.84-.48,1.79-.74,2.75-.74,1.96,0,3.79,1.05,4.77,2.75,1.52,2.63.61,6-2.01,7.51-.84.48-1.79.74-2.75.74Z"/>
    <path d="m15.99,61.49h0c1.78,0,3.44.96,4.34,2.5,1.38,2.39.56,5.45-1.83,6.83-.76.44-1.62.67-2.49.67-1.78,0-3.45-.96-4.34-2.5-1.38-2.39-.56-5.45,1.83-6.83.76-.44,1.62-.67,2.49-.67m0-1c-1.02,0-2.05.26-2.99.8-2.87,1.66-3.85,5.33-2.2,8.2,1.11,1.92,3.13,3,5.2,3,1.02,0,2.05-.26,2.99-.8,2.87-1.66,3.85-5.33,2.2-8.2-1.11-1.92-3.13-3-5.2-3h0Z"/>
  </g>
</svg>