<?xml version="1.0" encoding="UTF-8"?>
<svg id="icon" xmlns="http://www.w3.org/2000/svg" viewBox="0 0 80 126">
  <defs>
    <style>
      .cls-1 {
        fill: #f9c138;
      }

      .cls-2 {
        fill: #2b50c8;
      }
    </style>
  </defs>
  <g>
    <g>
      <polygon class="cls-2" points="67.87 120.5 40 28.13 12.13 120.5 5.67 120.5 40 6.73 74.33 120.5 67.87 120.5"/>
      <path d="m40,8.46l33.65,111.54h-5.41L40.96,29.57l-.96-3.17-.96,3.17L11.76,120h-5.41L40,8.46m0-3.46L5,121h7.5L40,29.86l27.5,91.14h7.5L40,5h0Z"/>
    </g>
    <g>
      <polygon class="cls-2" points="5.67 5.5 12.13 5.5 40 97.87 67.87 5.5 74.33 5.5 40 119.27 5.67 5.5"/>
      <path d="m73.65,6l-33.65,111.54L6.35,6h5.41l27.29,90.43.96,3.17.96-3.17L68.24,6h5.41m1.35-1h-7.5l-27.5,91.14L12.5,5h-7.5l35,116L75,5h0Z"/>
    </g>
  </g>
  <g>
    <polygon class="cls-1" points="34.53 63 40 48.42 45.47 63 40 77.58 34.53 63"/>
    <path d="m40,49.85l4.93,13.15-4.93,13.15-4.93-13.15,4.93-13.15m0-2.85l-6,16,6,16,6-16-6-16h0Z"/>
  </g>
  <g>
    <polygon class="cls-1" points="18.66 116.5 26 90.82 33.34 116.5 18.66 116.5"/>
    <path d="m26,92.64l6.67,23.36h-13.35s6.67-23.36,6.67-23.36m0-3.64l-8,28h16s-8-28-8-28h0Z"/>
  </g>
  <g>
    <polygon class="cls-1" points="46.65 116.5 53.99 90.82 61.32 116.5 46.65 116.5"/>
    <path d="m53.99,92.64l6.67,23.36h-13.35s6.67-23.36,6.67-23.36m0-3.64l-8,28h16s-8-28-8-28h0Z"/>
  </g>
  <g>
    <polygon class="cls-1" points="18.65 10.5 33.32 10.5 25.99 36.18 18.65 10.5"/>
    <path d="m32.66,11l-6.67,23.36-6.67-23.36h13.35m1.33-1h-16s8,28,8,28l8-28h0Z"/>
  </g>
  <g>
    <polygon class="cls-1" points="46.65 10.5 61.32 10.5 53.99 36.18 46.65 10.5"/>
    <path d="m60.66,11l-6.67,23.36-6.67-23.36h13.35m1.33-1h-16s8,28,8,28l8-28h0Z"/>
  </g>
  <g>
    <polygon class="cls-1" points="9.5 35.94 16.48 63 9.5 90.06 9.5 35.94"/>
    <path d="m10,39.88l5.97,23.12-5.97,23.12v-46.25m-1-7.88v62l8-31-8-31h0Z"/>
  </g>
  <g>
    <polygon class="cls-1" points="63.52 63 70.5 35.94 70.5 90.06 63.52 63"/>
    <path d="m70,39.88v46.25l-5.97-23.12,5.97-23.12m1-7.88l-8,31,8,31v-62h0Z"/>
  </g>
</svg>