<?xml version="1.0" encoding="UTF-8"?>
<svg id="Layer_1" data-name="Layer 1" xmlns="http://www.w3.org/2000/svg" viewBox="0 0 162 252">
  <defs>
    <style>
      .cls-1 {
        fill: #7d5076;
      }

      .cls-2, .cls-3 {
        fill: #8cbe66;
      }

      .cls-4 {
        fill: #cadc86;
      }

      .cls-5 {
        fill: #231f20;
      }

      .cls-6 {
        fill: #6eb992;
      }

      .cls-3 {
        stroke: #231f20;
        stroke-miterlimit: 10;
      }
    </style>
  </defs>
  <g>
    <g>
      <path class="cls-6" d="m81,72.15c-15.96,0-28.95-12.99-28.95-28.95s12.99-28.95,28.95-28.95,28.95,12.99,28.95,28.95c0,.71-.03,1.43-.09,2.2h-4.41c.07-.75.1-1.48.1-2.2,0-13.54-11.02-24.56-24.56-24.56s-24.55,11.02-24.55,24.56,11.02,24.56,24.55,24.56c8.35,0,15.99-4.15,20.55-11.12l3.73,2.33c-5.37,8.27-14.41,13.19-24.28,13.19Z"/>
      <path class="cls-5" d="m81,14.75c15.69,0,28.45,12.76,28.45,28.45,0,.55-.02,1.12-.05,1.7h-3.4c.04-.58.06-1.14.06-1.7,0-13.82-11.24-25.06-25.06-25.06s-25.06,11.24-25.06,25.06,11.24,25.06,25.06,25.06c8.35,0,16.02-4.07,20.7-10.94l2.88,1.8c-5.31,7.87-14.05,12.54-23.58,12.54-15.69,0-28.45-12.76-28.45-28.45s12.76-28.45,28.45-28.45m0-1c-16.27,0-29.45,13.19-29.45,29.45s13.19,29.45,29.45,29.45c10.53,0,19.77-5.53,24.97-13.85l-4.58-2.86c-4.25,6.79-11.8,11.31-20.4,11.31-13.29,0-24.06-10.77-24.06-24.06s10.77-24.06,24.06-24.06,24.06,10.77,24.06,24.06c0,.91-.06,1.81-.15,2.7h5.42c.08-.89.13-1.79.13-2.7,0-16.27-13.19-29.45-29.45-29.45h0Z"/>
    </g>
    <g>
      <rect class="cls-2" x="54.75" y="41" width="52.51" height="4.4"/>
      <path class="cls-5" d="m106.75,41.5v3.4h-51.51v-3.4h51.51m1-1h-53.51v5.4h53.51v-5.4h0Z"/>
    </g>
    <g>
      <path class="cls-1" d="m52.14,45.4c-.06-.76-.09-1.48-.09-2.2s.03-1.44.09-2.2h4.31v4.4h-4.31Z"/>
      <path class="cls-5" d="m55.94,41.5v3.4h-3.34c-.04-.58-.05-1.14-.05-1.7s.02-1.12.05-1.7h3.34m1-1h-5.27c-.08.89-.13,1.79-.13,2.7s.05,1.81.13,2.7h5.27v-5.4h0Z"/>
    </g>
    <g>
      <path class="cls-1" d="m105.56,45.4v-4.4h4.31c.06.77.09,1.49.09,2.2s-.03,1.44-.09,2.2h-4.31Z"/>
      <path class="cls-5" d="m109.4,41.5c.04.58.05,1.14.05,1.7s-.02,1.12-.05,1.7h-3.34v-3.4h3.34m.93-1h-5.27v5.4h5.27c.08-.89.13-1.79.13-2.7s-.05-1.81-.13-2.7h0Z"/>
    </g>
  </g>
  <g>
    <g>
      <path class="cls-6" d="m81,237.75c-15.96,0-28.95-12.99-28.95-28.95,0-.72.03-1.44.09-2.2h4.41c-.07.75-.1,1.49-.1,2.2,0,13.54,11.02,24.56,24.55,24.56s24.56-11.02,24.56-24.56-11.02-24.56-24.56-24.56c-8.34,0-15.99,4.15-20.55,11.12l-3.73-2.33c5.37-8.27,14.41-13.19,24.28-13.19,15.96,0,28.95,12.99,28.95,28.95s-12.99,28.95-28.95,28.95Z"/>
      <path class="cls-5" d="m81,180.35c15.69,0,28.45,12.76,28.45,28.45s-12.76,28.45-28.45,28.45-28.45-12.76-28.45-28.45c0-.55.02-1.12.05-1.7h3.4c-.04.58-.06,1.14-.06,1.7,0,13.82,11.24,25.06,25.06,25.06s25.06-11.24,25.06-25.06-11.24-25.06-25.06-25.06c-8.35,0-16.02,4.07-20.7,10.94l-2.88-1.8c5.31-7.87,14.05-12.54,23.58-12.54m0-1c-10.53,0-19.77,5.53-24.97,13.85l4.58,2.86c4.25-6.79,11.8-11.31,20.4-11.31,13.29,0,24.06,10.77,24.06,24.06s-10.77,24.06-24.06,24.06-24.06-10.77-24.06-24.06c0-.91.06-1.81.15-2.7h-5.42c-.08.89-.13,1.79-.13,2.7,0,16.27,13.19,29.45,29.45,29.45s29.45-13.19,29.45-29.45-13.19-29.45-29.45-29.45h0Z"/>
    </g>
    <g>
      <rect class="cls-2" x="54.75" y="206.6" width="52.51" height="4.4"/>
      <path class="cls-5" d="m106.75,207.1v3.4h-51.51v-3.4h51.51m1-1h-53.51v5.4h53.51v-5.4h0Z"/>
    </g>
    <g>
      <path class="cls-1" d="m105.56,211v-4.4h4.31c.06.77.09,1.49.09,2.2s-.03,1.44-.09,2.2h-4.31Z"/>
      <path class="cls-5" d="m109.4,207.1c.04.58.05,1.14.05,1.7s-.02,1.12-.05,1.7h-3.34v-3.4h3.34m.93-1h-5.27v5.4h5.27c.08-.89.13-1.79.13-2.7s-.05-1.81-.13-2.7h0Z"/>
    </g>
    <g>
      <path class="cls-1" d="m52.14,211c-.06-.76-.09-1.48-.09-2.2s.03-1.44.09-2.2h4.31v4.4h-4.31Z"/>
      <path class="cls-5" d="m55.94,207.1v3.4h-3.34c-.04-.58-.05-1.14-.05-1.7s.02-1.12.05-1.7h3.34m1-1h-5.27c-.08.89-.13,1.79-.13,2.7s.05,1.81.13,2.7h5.27v-5.4h0Z"/>
    </g>
  </g>
  <g>
    <polygon class="cls-6" points="73.07 126 81 113.61 88.93 126 81 138.39 73.07 126"/>
    <path class="cls-5" d="m81,114.54l7.34,11.46-7.34,11.46-7.34-11.46,7.34-11.46m0-1.85l-8.53,13.31,8.53,13.31,8.53-13.31-8.53-13.31h0Z"/>
  </g>
  <g>
    <g>
      <g>
        <rect class="cls-2" x="32.07" y="73.57" width="4.51" height="53" transform="translate(-48.66 34.45) rotate(-32.73)"/>
        <path class="cls-5" d="m21.75,77.25l28.11,43.74-2.95,1.9-28.11-43.74,2.95-1.9m.3-1.38l-4.63,2.98,29.2,45.43,4.63-2.98-29.2-45.43h0Z"/>
      </g>
      <g>
        <path class="cls-6" d="m19.73,79.61c-.34,0-.67-.07-.97-.22-1.12-.54-1.59-1.89-1.05-3.01.37-.78,1.17-1.28,2.03-1.28.34,0,.67.07.97.22,1.12.54,1.59,1.89,1.06,3.01-.37.78-1.17,1.28-2.03,1.28Z"/>
        <path class="cls-5" d="m19.73,75.6h0c.26,0,.52.06.76.17.42.2.74.56.9,1,.16.44.13.92-.07,1.34-.29.61-.91,1-1.58,1-.26,0-.52-.06-.76-.17-.42-.2-.74-.56-.9-1-.16-.44-.13-.92.07-1.34.29-.61.91-1,1.58-1m0-1c-1.03,0-2.01.58-2.48,1.56-.66,1.37-.08,3.02,1.29,3.67.38.18.79.27,1.19.27,1.03,0,2.01-.58,2.48-1.56.66-1.37.08-3.02-1.29-3.67-.38-.18-.79-.27-1.19-.27h0Z"/>
      </g>
    </g>
    <g>
      <g>
        <path class="cls-1" d="m32.42,155.3c-7.5,0-14.39-3.76-18.44-10.06-6.53-10.16-3.58-23.73,6.58-30.26,3.54-2.28,7.63-3.48,11.82-3.48,7.5,0,14.39,3.76,18.44,10.06,6.53,10.16,3.58,23.73-6.58,30.26-3.54,2.28-7.63,3.48-11.82,3.48Z"/>
        <path class="cls-5" d="m32.38,111v1c7.33,0,14.06,3.68,18.02,9.83,3.09,4.81,4.12,10.53,2.91,16.12-1.21,5.59-4.53,10.36-9.34,13.45-3.46,2.22-7.45,3.4-11.55,3.4-7.33,0-14.07-3.68-18.02-9.83-6.38-9.93-3.49-23.19,6.43-29.57,3.46-2.22,7.45-3.4,11.55-3.4v-1m0,0c-4.15,0-8.34,1.15-12.09,3.56-10.41,6.69-13.42,20.55-6.73,30.95,4.28,6.66,11.49,10.29,18.86,10.29,4.15,0,8.34-1.15,12.09-3.56,10.41-6.69,13.42-20.55,6.73-30.95-4.28-6.66-11.49-10.29-18.86-10.29h0Z"/>
      </g>
      <g>
        <path class="cls-4" d="m32.42,149.8c-5.62,0-10.78-2.82-13.81-7.53-4.89-7.61-2.68-17.77,4.93-22.66,2.65-1.7,5.71-2.6,8.85-2.6,5.62,0,10.78,2.82,13.81,7.53,2.37,3.68,3.16,8.07,2.23,12.35-.93,4.28-3.47,7.94-7.16,10.31-2.65,1.7-5.71,2.61-8.85,2.61Z"/>
        <path class="cls-5" d="m32.39,116.5v1h0c5.44,0,10.45,2.73,13.39,7.3,4.74,7.37,2.6,17.23-4.78,21.97-2.57,1.65-5.54,2.53-8.58,2.53-5.44,0-10.45-2.73-13.39-7.3-4.74-7.37-2.6-17.23,4.78-21.97,2.57-1.65,5.54-2.53,8.58-2.53v-1m0,0c-3.13,0-6.29.87-9.12,2.68-7.85,5.05-10.13,15.5-5.08,23.35,3.23,5.02,8.67,7.76,14.23,7.76,3.13,0,6.29-.87,9.12-2.68,7.85-5.05,10.13-15.5,5.08-23.35-3.23-5.02-8.67-7.76-14.23-7.76h0Z"/>
      </g>
    </g>
  </g>
  <g>
    <g>
      <g>
        <rect class="cls-2" x="125.42" y="125.43" width="4.51" height="53" transform="translate(-61.88 93.16) rotate(-32.73)"/>
        <path class="cls-5" d="m115.09,129.11l28.11,43.74-2.95,1.9-28.11-43.74,2.95-1.9m.3-1.38l-4.63,2.98,29.2,45.43,4.63-2.98-29.2-45.43h0Z"/>
      </g>
      <g>
        <path class="cls-6" d="m142.27,176.9c-.34,0-.67-.07-.97-.22-.54-.26-.95-.72-1.15-1.28-.2-.57-.17-1.18.09-1.72.37-.78,1.17-1.28,2.03-1.28.34,0,.67.07.97.22,1.12.54,1.59,1.89,1.05,3.01-.37.78-1.17,1.28-2.03,1.28Z"/>
        <path class="cls-5" d="m142.27,172.89h0c.26,0,.52.06.76.17.42.2.74.56.9,1,.16.44.13.92-.07,1.34-.29.61-.91,1-1.58,1-.26,0-.52-.06-.76-.17-.87-.42-1.24-1.47-.82-2.34.29-.61.91-1,1.58-1m0-1c-1.03,0-2.01.58-2.48,1.56-.66,1.37-.08,3.02,1.29,3.67.38.18.79.27,1.19.27,1.03,0,2.01-.58,2.48-1.56.66-1.37.08-3.02-1.29-3.67-.38-.18-.79-.27-1.19-.27h0Z"/>
      </g>
    </g>
    <g>
      <g>
        <path class="cls-1" d="m129.62,140.5c-7.5,0-14.39-3.76-18.44-10.06-3.16-4.92-4.22-10.78-2.98-16.49,1.24-5.72,4.64-10.61,9.56-13.77,3.54-2.28,7.63-3.48,11.82-3.48,7.5,0,14.39,3.76,18.44,10.06,6.53,10.16,3.58,23.73-6.58,30.26-3.54,2.28-7.63,3.48-11.82,3.48Z"/>
        <path class="cls-5" d="m129.58,96.2v1h0c7.33,0,14.06,3.68,18.02,9.83,6.38,9.93,3.49,23.19-6.43,29.57-3.46,2.22-7.45,3.4-11.55,3.4-7.33,0-14.07-3.68-18.02-9.83-3.09-4.81-4.12-10.53-2.91-16.12,1.21-5.59,4.53-10.36,9.34-13.45,3.46-2.22,7.45-3.4,11.55-3.4v-1m0,0c-4.15,0-8.34,1.15-12.09,3.56-10.41,6.69-13.42,20.55-6.73,30.95,4.28,6.66,11.49,10.29,18.86,10.29,4.15,0,8.34-1.15,12.09-3.56,10.41-6.69,13.42-20.55,6.73-30.95-4.28-6.66-11.49-10.29-18.86-10.29h0Z"/>
      </g>
      <g>
        <path class="cls-4" d="m129.62,135c-5.62,0-10.78-2.82-13.81-7.53-2.37-3.68-3.16-8.07-2.23-12.35.93-4.28,3.47-7.94,7.16-10.31,2.65-1.7,5.71-2.61,8.85-2.61,5.62,0,10.78,2.82,13.81,7.53,2.37,3.68,3.16,8.07,2.23,12.35-.93,4.28-3.47,7.94-7.16,10.31-2.65,1.7-5.71,2.6-8.85,2.6Z"/>
        <path class="cls-5" d="m129.59,101.7v1s0,0,0,0c5.44,0,10.45,2.73,13.39,7.3,2.3,3.57,3.06,7.83,2.16,11.97-.9,4.15-3.37,7.7-6.94,10-2.57,1.65-5.54,2.53-8.58,2.53-5.44,0-10.45-2.73-13.39-7.3-2.3-3.57-3.06-7.83-2.16-11.97.9-4.15,3.37-7.7,6.94-10,2.57-1.65,5.54-2.53,8.58-2.53v-1m0,0c-3.13,0-6.29.87-9.12,2.68-7.85,5.05-10.13,15.5-5.08,23.35,3.23,5.02,8.67,7.76,14.23,7.76,3.13,0,6.29-.87,9.12-2.68,7.85-5.05,10.13-15.5,5.08-23.35-3.23-5.02-8.67-7.76-14.23-7.76h0Z"/>
      </g>
    </g>
  </g>
  <circle class="cls-3" cx="36" cy="14.4" r="7.2"/>
  <circle class="cls-3" cx="126" cy="14.4" r="7.2"/>
  <g>
    <path class="cls-1" d="m81,93.1c-3.69,0-6.7-3.01-6.7-6.7s3.01-6.7,6.7-6.7,6.7,3.01,6.7,6.7-3.01,6.7-6.7,6.7Z"/>
    <path class="cls-5" d="m81,80.2c3.42,0,6.2,2.78,6.2,6.2s-2.78,6.2-6.2,6.2-6.2-2.78-6.2-6.2,2.78-6.2,6.2-6.2m0-1c-3.98,0-7.2,3.22-7.2,7.2s3.22,7.2,7.2,7.2,7.2-3.22,7.2-7.2-3.22-7.2-7.2-7.2h0Z"/>
  </g>
  <g>
    <path class="cls-1" d="m81,172.3c-3.69,0-6.7-3.01-6.7-6.7s3.01-6.7,6.7-6.7,6.7,3.01,6.7,6.7-3.01,6.7-6.7,6.7Z"/>
    <path class="cls-5" d="m81,159.4c3.42,0,6.2,2.78,6.2,6.2s-2.78,6.2-6.2,6.2-6.2-2.78-6.2-6.2,2.78-6.2,6.2-6.2m0-1c-3.98,0-7.2,3.22-7.2,7.2s3.22,7.2,7.2,7.2,7.2-3.22,7.2-7.2-3.22-7.2-7.2-7.2h0Z"/>
  </g>
  <circle class="cls-3" cx="126" cy="237.6" r="7.2"/>
  <circle class="cls-3" cx="36" cy="237.6" r="7.2"/>
  <g>
    <polygon class="cls-4" points="151.41 247.9 81 138.39 10.59 247.9 5.9 247.9 5.9 230.41 73.03 126 5.9 21.59 5.9 4.1 10.59 4.1 81 113.61 151.41 4.1 156.1 4.1 156.1 21.59 88.97 126 156.1 230.41 156.1 247.9 151.41 247.9"/>
    <path class="cls-5" d="m155.6,4.6v16.84l-66.88,104.02-.35.54.35.54,66.88,104.02v16.84h-3.91l-69.84-108.63-.84-1.31-.84,1.31L10.31,247.4h-3.91v-16.84l66.88-104.02.35-.54-.35-.54L6.4,21.44V4.6h3.91l69.85,108.63.84,1.31.84-1.31L151.69,4.6h3.91m1-1h-5.46l-70.14,109.09L10.86,3.6h-5.46v18.13l67.04,104.27L5.4,230.27v18.13h5.46l70.14-109.09,70.14,109.09h5.46v-18.13l-67.04-104.27L156.6,21.73V3.6h0Z"/>
  </g>
</svg>